<mxfile host="Electron" modified="2023-10-20T19:30:24.740Z" agent="Mozilla/5.0 (Windows NT 10.0; Win64; x64) AppleWebKit/537.36 (KHTML, like Gecko) draw.io/22.0.3 Chrome/114.0.5735.289 Electron/25.8.4 Safari/537.36" etag="tNgcPj5kzDeJgeszjX-G" version="22.0.3" type="device">
  <diagram id="R2lEEEUBdFMjLlhIrx00" name="Page-1">
    <mxGraphModel dx="2819" dy="984" grid="1" gridSize="10" guides="1" tooltips="1" connect="1" arrows="1" fold="1" page="1" pageScale="1" pageWidth="850" pageHeight="1100" math="0" shadow="0" extFonts="Permanent Marker^https://fonts.googleapis.com/css?family=Permanent+Marker">
      <root>
        <mxCell id="0" />
        <mxCell id="1" parent="0" />
        <mxCell id="6PDDJ4lK-R0Kl8WrUwfu-10" value="JFrame" style="html=1;whiteSpace=wrap;" vertex="1" parent="1">
          <mxGeometry x="360" y="60" width="110" height="50" as="geometry" />
        </mxCell>
        <mxCell id="6PDDJ4lK-R0Kl8WrUwfu-23" value="gui.ExerciseLogWindow" style="swimlane;fontStyle=1;align=center;verticalAlign=top;childLayout=stackLayout;horizontal=1;startSize=26;horizontalStack=0;resizeParent=1;resizeParentMax=0;resizeLast=0;collapsible=1;marginBottom=0;whiteSpace=wrap;html=1;" vertex="1" parent="1">
          <mxGeometry x="-140" y="320" width="300" height="250" as="geometry" />
        </mxCell>
        <mxCell id="6PDDJ4lK-R0Kl8WrUwfu-24" value="- serialVersionUID: long&lt;br&gt;- dateField: JtextField&lt;br&gt;- timeField: JTextField&lt;br&gt;- exerciseTypeComboBox: JComboBox&amp;lt;String&amp;gt;&lt;br&gt;- intensityComboBox: JComboBox&amp;lt;String&amp;gt;&lt;br&gt;- caloriesBurntLabel: JLabel&lt;br&gt;- bmrLabel: JLabel" style="text;strokeColor=none;fillColor=none;align=left;verticalAlign=top;spacingLeft=4;spacingRight=4;overflow=hidden;rotatable=0;points=[[0,0.5],[1,0.5]];portConstraint=eastwest;whiteSpace=wrap;html=1;" vertex="1" parent="6PDDJ4lK-R0Kl8WrUwfu-23">
          <mxGeometry y="26" width="300" height="124" as="geometry" />
        </mxCell>
        <mxCell id="6PDDJ4lK-R0Kl8WrUwfu-25" value="" style="line;strokeWidth=1;fillColor=none;align=left;verticalAlign=middle;spacingTop=-1;spacingLeft=3;spacingRight=3;rotatable=0;labelPosition=right;points=[];portConstraint=eastwest;strokeColor=inherit;" vertex="1" parent="6PDDJ4lK-R0Kl8WrUwfu-23">
          <mxGeometry y="150" width="300" height="8" as="geometry" />
        </mxCell>
        <mxCell id="6PDDJ4lK-R0Kl8WrUwfu-26" value="+ gui.ExerciseLogWindow()&lt;br&gt;+ createUI(): void&lt;br&gt;+ setUIFont(FontUIResource f): void&lt;br&gt;+ actionPerformed(e: ActionEvent): void&lt;br&gt;+ main(args: String[]): void" style="text;strokeColor=none;fillColor=none;align=left;verticalAlign=top;spacingLeft=4;spacingRight=4;overflow=hidden;rotatable=0;points=[[0,0.5],[1,0.5]];portConstraint=eastwest;whiteSpace=wrap;html=1;" vertex="1" parent="6PDDJ4lK-R0Kl8WrUwfu-23">
          <mxGeometry y="158" width="300" height="92" as="geometry" />
        </mxCell>
        <mxCell id="6PDDJ4lK-R0Kl8WrUwfu-32" value="Extends" style="endArrow=block;endSize=16;endFill=0;html=1;rounded=0;entryX=0;entryY=0.5;entryDx=0;entryDy=0;exitX=0.5;exitY=0;exitDx=0;exitDy=0;" edge="1" parent="1" source="6PDDJ4lK-R0Kl8WrUwfu-23" target="6PDDJ4lK-R0Kl8WrUwfu-10">
          <mxGeometry width="160" relative="1" as="geometry">
            <mxPoint x="50" y="320" as="sourcePoint" />
            <mxPoint x="415" y="180" as="targetPoint" />
            <Array as="points">
              <mxPoint x="10" y="85" />
              <mxPoint x="160" y="85" />
            </Array>
          </mxGeometry>
        </mxCell>
        <mxCell id="6PDDJ4lK-R0Kl8WrUwfu-33" value="gui.DietLogWindow" style="swimlane;fontStyle=1;align=center;verticalAlign=top;childLayout=stackLayout;horizontal=1;startSize=26;horizontalStack=0;resizeParent=1;resizeParentMax=0;resizeLast=0;collapsible=1;marginBottom=0;whiteSpace=wrap;html=1;" vertex="1" parent="1">
          <mxGeometry x="215" y="320" width="400" height="310" as="geometry" />
        </mxCell>
        <mxCell id="6PDDJ4lK-R0Kl8WrUwfu-34" value="- serialVersionUID: long &lt;br&gt;- dateField: JTextField&lt;br&gt;- addIngredientsButton: JButton &lt;br&gt;- ingredientFields: List&amp;lt;JTextField&amp;gt; &lt;br&gt;- quantityFields: List&amp;lt;JTextField&amp;gt;&lt;br&gt;- mainPanel: JPanel&lt;br&gt;- tabbedPane: JTabbedPane&amp;nbsp;&lt;br&gt;- cons: GridBagConstraints&lt;br&gt;- snackTypeFields: List&amp;lt;JTextField&amp;gt;" style="text;strokeColor=none;fillColor=none;align=left;verticalAlign=top;spacingLeft=4;spacingRight=4;overflow=hidden;rotatable=0;points=[[0,0.5],[1,0.5]];portConstraint=eastwest;whiteSpace=wrap;html=1;" vertex="1" parent="6PDDJ4lK-R0Kl8WrUwfu-33">
          <mxGeometry y="26" width="400" height="144" as="geometry" />
        </mxCell>
        <mxCell id="6PDDJ4lK-R0Kl8WrUwfu-35" value="" style="line;strokeWidth=1;fillColor=none;align=left;verticalAlign=middle;spacingTop=-1;spacingLeft=3;spacingRight=3;rotatable=0;labelPosition=right;points=[];portConstraint=eastwest;strokeColor=inherit;" vertex="1" parent="6PDDJ4lK-R0Kl8WrUwfu-33">
          <mxGeometry y="170" width="400" height="8" as="geometry" />
        </mxCell>
        <mxCell id="6PDDJ4lK-R0Kl8WrUwfu-36" value="+ gui.DietLogWindow()&lt;br&gt;+ createUI(): void&lt;br&gt;+ showErrorDialog(message: String): void&lt;br&gt;+ createMealPanel(mealType: String): JPanel&lt;br&gt;+ createIngredientFields(mealPanel: JPanel, numIngredients: Int): void&lt;br&gt;+ createSnackField(numSnacks: int): void&lt;br&gt;+ setUIFont(f: FontUIResource): void&lt;br&gt;+ main(args: String[]): void" style="text;strokeColor=none;fillColor=none;align=left;verticalAlign=top;spacingLeft=4;spacingRight=4;overflow=hidden;rotatable=0;points=[[0,0.5],[1,0.5]];portConstraint=eastwest;whiteSpace=wrap;html=1;" vertex="1" parent="6PDDJ4lK-R0Kl8WrUwfu-33">
          <mxGeometry y="178" width="400" height="132" as="geometry" />
        </mxCell>
        <mxCell id="6PDDJ4lK-R0Kl8WrUwfu-47" value="Extends" style="endArrow=block;endSize=16;endFill=0;html=1;rounded=0;entryX=0.5;entryY=1;entryDx=0;entryDy=0;exitX=0.5;exitY=0;exitDx=0;exitDy=0;" edge="1" parent="1" source="6PDDJ4lK-R0Kl8WrUwfu-33" target="6PDDJ4lK-R0Kl8WrUwfu-10">
          <mxGeometry width="160" relative="1" as="geometry">
            <mxPoint x="280" y="300" as="sourcePoint" />
            <mxPoint x="440" y="300" as="targetPoint" />
          </mxGeometry>
        </mxCell>
        <mxCell id="6PDDJ4lK-R0Kl8WrUwfu-48" value="gui.ProfileCreationWindow" style="swimlane;fontStyle=1;align=center;verticalAlign=top;childLayout=stackLayout;horizontal=1;startSize=26;horizontalStack=0;resizeParent=1;resizeParentMax=0;resizeLast=0;collapsible=1;marginBottom=0;whiteSpace=wrap;html=1;" vertex="1" parent="1">
          <mxGeometry x="660" y="320" width="300" height="280" as="geometry" />
        </mxCell>
        <mxCell id="6PDDJ4lK-R0Kl8WrUwfu-49" value="- serialVersionUID: long&lt;br&gt;- dateOfBirthField: JTextField&lt;br&gt;- heightField: JTextField&lt;br&gt;- weightField: JTextField&lt;br&gt;- maleRadioButton: JRadioButton&lt;br&gt;- femaleRadioButton: JRadioButton&lt;br&gt;- genderGroup: ButtonGroup&amp;nbsp;&lt;br&gt;- metricRadioButton: JRadioButton&amp;nbsp;&lt;br&gt;- imperialRadioButton: JRadioButton&lt;br&gt;- unitsGroup: ButtonGroup&amp;nbsp;" style="text;strokeColor=none;fillColor=none;align=left;verticalAlign=top;spacingLeft=4;spacingRight=4;overflow=hidden;rotatable=0;points=[[0,0.5],[1,0.5]];portConstraint=eastwest;whiteSpace=wrap;html=1;" vertex="1" parent="6PDDJ4lK-R0Kl8WrUwfu-48">
          <mxGeometry y="26" width="300" height="164" as="geometry" />
        </mxCell>
        <mxCell id="6PDDJ4lK-R0Kl8WrUwfu-50" value="" style="line;strokeWidth=1;fillColor=none;align=left;verticalAlign=middle;spacingTop=-1;spacingLeft=3;spacingRight=3;rotatable=0;labelPosition=right;points=[];portConstraint=eastwest;strokeColor=inherit;" vertex="1" parent="6PDDJ4lK-R0Kl8WrUwfu-48">
          <mxGeometry y="190" width="300" height="8" as="geometry" />
        </mxCell>
        <mxCell id="6PDDJ4lK-R0Kl8WrUwfu-51" value="+ gui.ProfileCreationWindow()&lt;br&gt;+ createUI(): void&lt;br&gt;+ actionPerformed(e: ActionEvent): void&lt;br&gt;+ main(args: String[]): void" style="text;strokeColor=none;fillColor=none;align=left;verticalAlign=top;spacingLeft=4;spacingRight=4;overflow=hidden;rotatable=0;points=[[0,0.5],[1,0.5]];portConstraint=eastwest;whiteSpace=wrap;html=1;" vertex="1" parent="6PDDJ4lK-R0Kl8WrUwfu-48">
          <mxGeometry y="198" width="300" height="82" as="geometry" />
        </mxCell>
        <mxCell id="6PDDJ4lK-R0Kl8WrUwfu-52" value="Extends" style="endArrow=block;endSize=16;endFill=0;html=1;rounded=0;entryX=1;entryY=0.5;entryDx=0;entryDy=0;exitX=0.5;exitY=0;exitDx=0;exitDy=0;" edge="1" parent="1" source="6PDDJ4lK-R0Kl8WrUwfu-48" target="6PDDJ4lK-R0Kl8WrUwfu-10">
          <mxGeometry width="160" relative="1" as="geometry">
            <mxPoint x="580" y="360" as="sourcePoint" />
            <mxPoint x="740" y="360" as="targetPoint" />
            <Array as="points">
              <mxPoint x="810" y="85" />
            </Array>
          </mxGeometry>
        </mxCell>
      </root>
    </mxGraphModel>
  </diagram>
</mxfile>
